<?xml version="1.0" encoding="UTF-8" standalone="no"?>
<!DOCTYPE svg PUBLIC "-//W3C//DTD SVG 1.1//EN" "http://www.w3.org/Graphics/SVG/1.1/DTD/svg11.dtd">
<svg version="1.1" xmlns="http://www.w3.org/2000/svg" xmlns:xlink="http://www.w3.org/1999/xlink" preserveAspectRatio="xMidYMid meet" viewBox="0 0 640 640" width="640" height="640"><defs><path d="M80.59 74.54L80.59 74.54L77.88 74.55L80.59 74.54Z" id="d1j8KVYCrA"></path><path d="M92.19 159.49L105.4 223.8C105.87 228.23 106.17 231.01 106.29 232.12C106.29 232.12 115.09 310.33 115.09 310.33C116.59 322.94 115.86 316.79 117.2 328.18C120.76 358.25 121.7 388.58 120.01 418.81C118.76 441.17 115.64 497.08 110.64 586.52L536.38 537.36C535.35 531.99 534.71 528.64 534.45 527.3C534.45 527.3 515.94 428.99 515.94 428.99C515.01 423.97 512.69 411.4 508.98 391.3C506.93 374.34 505.65 363.73 505.14 359.49C495.11 276.26 496.18 192.08 508.33 109.13C508.85 105.6 510.15 96.76 512.22 82.62L117.04 153.64L92.19 159.49Z" id="l9WIr3uJX"></path><radialGradient id="gradientfRLm2zfwK" gradientUnits="userSpaceOnUse" cx="318.91" cy="79.3" dx="188.14" dy="590.95" r="528.1"><stop style="stop-color: #c3c3c3;stop-opacity: 1" offset="0%"></stop><stop style="stop-color: #212121;stop-opacity: 1" offset="100%"></stop></radialGradient><path d="M119.7 523.72L118.41 487.73C187.42 503.05 255.71 512.43 323.27 515.85C390.84 519.27 457.68 516.74 523.79 508.25L546.54 560L114 568.06L119.7 523.72Z" id="gBzKWbXis"></path><path d="M92.47 154.24L88.6 149.84L508.09 82.75L501.06 133.79C439.63 132.27 375.93 137.44 309.95 149.28C243.98 161.12 175.73 179.65 105.21 204.85L92.47 154.24Z" id="hrKVL4FZt"></path><path d="M81.38 128.35C82.93 118.37 81.25 108.15 76.58 99.19C76.48 99 76.23 98.52 75.84 97.76C71.2 91.79 68.31 88.06 67.15 86.57C65.26 84.13 66.79 80.56 69.87 80.25C100.54 77.19 177.23 69.55 299.92 57.32C412.03 46.15 482.1 39.17 510.13 36.38C518.29 35.56 526.12 39.81 529.89 47.09C531.84 50.87 531.59 50.39 533.58 54.23C537.51 61.82 538.71 70.54 536.98 78.92C536.28 82.28 537.24 77.66 536.63 80.59C534.76 89.67 527.37 96.58 518.19 97.85C429.41 110.16 180.24 144.7 91.93 156.94C83.44 158.12 76.42 150.4 78.4 142.06C78.9 139.95 79.5 137.41 80.79 131.92C80.79 131.92 80.97 131.04 80.97 131.04C81.53 127.43 81.29 128.98 81.38 128.35Z" id="b36HfxRdRp"></path><linearGradient id="gradientbx4mcKFqF" gradientUnits="userSpaceOnUse" x1="299.9" y1="57.33" x2="307.5" y2="135.71"><stop style="stop-color: #ababab;stop-opacity: 1" offset="0%"></stop><stop style="stop-color: #2a2a2a;stop-opacity: 1" offset="100%"></stop></linearGradient><path d="M497.54 502.48C497.87 502.85 497.44 503.41 496.99 503.17C481.31 494.88 437.33 471.64 421.87 463.48C419.68 462.32 417.72 460.76 416.09 458.88C345.03 377.07 134.33 134.47 63.27 52.66C61.91 51.08 62.06 48.7 63.61 47.32C67.59 43.76 76.74 35.59 80.72 32.03C82.26 30.66 84.63 30.8 86 32.36C168.63 126.75 414.74 407.89 497.54 502.48Z" id="b4CMzjrHSx"></path><linearGradient id="gradientbblgBLpTO" gradientUnits="userSpaceOnUse" x1="291.04" y1="264.77" x2="266.52" y2="286.67"><stop style="stop-color: #bcbcbc;stop-opacity: 1" offset="0%"></stop><stop style="stop-color: #232323;stop-opacity: 1" offset="100%"></stop></linearGradient><path d="M551.17 574.47C550.41 582.32 552.14 590.21 556.1 597.03C556.1 597.03 556.1 597.03 556.1 597.03C557.24 597.84 557.95 598.35 558.24 598.55C560.6 600.23 559.37 603.96 556.47 603.9C526.29 603.3 450.82 601.8 330.08 599.39C216.91 597.14 146.18 595.73 117.89 595.17C110.55 595.02 103.82 591.04 100.16 584.68C98.89 582.47 102.24 588.29 101.28 586.63C96.54 578.41 95.78 568.49 99.21 559.64C99.75 558.22 98.27 562.05 99.39 559.16C100.94 555.16 104.72 552.47 109 552.31C197.58 549.03 452.67 539.59 540.36 536.35C546.68 536.11 551.95 541.15 552.01 547.48C552.04 550.81 552.03 550.2 552.06 553.77C552.06 553.77 551.16 574.49 551.16 574.49C550.93 576.9 551.36 572.41 551.17 574.47Z" id="bmFVfjFbp"></path><linearGradient id="gradientb1BQwLpXzx" gradientUnits="userSpaceOnUse" x1="327.87" y1="601.58" x2="329.98" y2="529.88"><stop style="stop-color: #ababab;stop-opacity: 1" offset="0%"></stop><stop style="stop-color: #2a2a2a;stop-opacity: 1" offset="100%"></stop></linearGradient></defs><g><g><g><use xlink:href="#d1j8KVYCrA" opacity="1" fill="#8500f3" fill-opacity="1"></use></g><g><use xlink:href="#l9WIr3uJX" opacity="1" fill="url(#gradientfRLm2zfwK)"></use><g><use xlink:href="#l9WIr3uJX" opacity="1" fill-opacity="0" stroke="#fcfcfc" stroke-width="6" stroke-opacity="1"></use></g></g><g><use xlink:href="#gBzKWbXis" opacity="1" fill="#191919" fill-opacity="0.63"></use></g><g><use xlink:href="#hrKVL4FZt" opacity="1" fill="#1a1a1a" fill-opacity="0.63"></use></g><g><g><filter id="shadow4718231" x="53.32" y="23.28" width="497.43" height="151.78" filterUnits="userSpaceOnUse" primitiveUnits="userSpaceOnUse"><feFlood></feFlood><feComposite in2="SourceAlpha" operator="in"></feComposite><feGaussianBlur stdDeviation="1"></feGaussianBlur><feOffset dx="0" dy="5" result="afterOffset"></feOffset><feFlood flood-color="#000000" flood-opacity="0.5"></feFlood><feComposite in2="afterOffset" operator="in"></feComposite><feMorphology operator="dilate" radius="1"></feMorphology><feComposite in2="SourceAlpha" operator="out"></feComposite></filter><path d="M81.38 128.35C82.93 118.37 81.25 108.15 76.58 99.19C76.48 99 76.23 98.52 75.84 97.76C71.2 91.79 68.31 88.06 67.15 86.57C65.26 84.13 66.79 80.56 69.87 80.25C100.54 77.19 177.23 69.55 299.92 57.32C412.03 46.15 482.1 39.17 510.13 36.38C518.29 35.56 526.12 39.81 529.89 47.09C531.84 50.87 531.59 50.39 533.58 54.23C537.51 61.82 538.71 70.54 536.98 78.92C536.28 82.28 537.24 77.66 536.63 80.59C534.76 89.67 527.37 96.58 518.19 97.85C429.41 110.16 180.24 144.7 91.93 156.94C83.44 158.12 76.42 150.4 78.4 142.06C78.9 139.95 79.5 137.41 80.79 131.92C80.79 131.92 80.97 131.04 80.97 131.04C81.53 127.43 81.29 128.98 81.38 128.35Z" id="bQhpCmZ7C" fill="white" fill-opacity="1" filter="url(#shadow4718231)"></path></g><use xlink:href="#b36HfxRdRp" opacity="1" fill="url(#gradientbx4mcKFqF)"></use><g><use xlink:href="#b36HfxRdRp" opacity="1" fill-opacity="0" stroke="#ffffff" stroke-width="2" stroke-opacity="1"></use></g></g><g><g><filter id="shadow5740279" x="38.34" y="7.09" width="483.32" height="536.14" filterUnits="userSpaceOnUse" primitiveUnits="userSpaceOnUse"><feFlood></feFlood><feComposite in2="SourceAlpha" operator="in"></feComposite><feGaussianBlur stdDeviation="1"></feGaussianBlur><feOffset dx="0" dy="16" result="afterOffset"></feOffset><feFlood flood-color="#000000" flood-opacity="0.5"></feFlood><feComposite in2="afterOffset" operator="in"></feComposite><feMorphology operator="dilate" radius="1"></feMorphology><feComposite in2="SourceAlpha" operator="out"></feComposite></filter><path d="M497.54 502.48C497.87 502.85 497.44 503.41 496.99 503.17C481.31 494.88 437.33 471.64 421.87 463.48C419.68 462.32 417.72 460.76 416.09 458.88C345.03 377.07 134.33 134.47 63.27 52.66C61.91 51.08 62.06 48.7 63.61 47.32C67.59 43.76 76.74 35.59 80.72 32.03C82.26 30.66 84.63 30.8 86 32.36C168.63 126.75 414.74 407.89 497.54 502.48Z" id="a35pC84Dq" fill="white" fill-opacity="1" filter="url(#shadow5740279)"></path></g><use xlink:href="#b4CMzjrHSx" opacity="1" fill="url(#gradientbblgBLpTO)"></use><g><use xlink:href="#b4CMzjrHSx" opacity="1" fill-opacity="0" stroke="#f4f1f9" stroke-width="4" stroke-opacity="1"></use></g></g><g><g><filter id="shadow14979389" x="84.09" y="523.34" width="488.39" height="98.56" filterUnits="userSpaceOnUse" primitiveUnits="userSpaceOnUse"><feFlood></feFlood><feComposite in2="SourceAlpha" operator="in"></feComposite><feGaussianBlur stdDeviation="1"></feGaussianBlur><feOffset dx="0" dy="5" result="afterOffset"></feOffset><feFlood flood-color="#000000" flood-opacity="0.5"></feFlood><feComposite in2="afterOffset" operator="in"></feComposite><feMorphology operator="dilate" radius="1"></feMorphology><feComposite in2="SourceAlpha" operator="out"></feComposite></filter><path d="M551.17 574.47C550.41 582.32 552.14 590.21 556.1 597.03C556.1 597.03 556.1 597.03 556.1 597.03C557.24 597.84 557.95 598.35 558.24 598.55C560.6 600.23 559.37 603.96 556.47 603.9C526.29 603.3 450.82 601.8 330.08 599.39C216.91 597.14 146.18 595.73 117.89 595.17C110.55 595.02 103.82 591.04 100.16 584.68C98.89 582.47 102.24 588.29 101.28 586.63C96.54 578.41 95.78 568.49 99.21 559.64C99.75 558.22 98.27 562.05 99.39 559.16C100.94 555.16 104.72 552.47 109 552.31C197.58 549.03 452.67 539.59 540.36 536.35C546.68 536.11 551.95 541.15 552.01 547.48C552.04 550.81 552.03 550.2 552.06 553.77C552.06 553.77 551.16 574.49 551.16 574.49C550.93 576.9 551.36 572.41 551.17 574.47Z" id="epVQi69OS" fill="white" fill-opacity="1" filter="url(#shadow14979389)"></path></g><use xlink:href="#bmFVfjFbp" opacity="1" fill="url(#gradientb1BQwLpXzx)"></use><g><use xlink:href="#bmFVfjFbp" opacity="1" fill-opacity="0" stroke="#ffffff" stroke-width="2" stroke-opacity="1"></use></g></g></g></g></svg>