<?xml version="1.0" encoding="UTF-8" standalone="no"?>
<svg
   xmlns:dc="http://purl.org/dc/elements/1.1/"
   xmlns:cc="http://creativecommons.org/ns#"
   xmlns:rdf="http://www.w3.org/1999/02/22-rdf-syntax-ns#"
   xmlns:svg="http://www.w3.org/2000/svg"
   xmlns="http://www.w3.org/2000/svg"
   xmlns:sodipodi="http://sodipodi.sourceforge.net/DTD/sodipodi-0.dtd"
   xmlns:inkscape="http://www.inkscape.org/namespaces/inkscape"
   sodipodi:docname="disegno_prova.svg"
   inkscape:version="1.0 (4035a4fb49, 2020-05-01)"
   id="svg191"
   version="1.1"
   viewBox="0 0 210 297"
   height="297mm"
   width="210mm">
  <defs
     id="defs185" />
  <sodipodi:namedview
     inkscape:window-maximized="0"
     inkscape:window-y="26"
     inkscape:window-x="26"
     inkscape:window-height="967"
     inkscape:window-width="1545"
     showgrid="false"
     inkscape:document-rotation="0"
     inkscape:current-layer="layer1"
     inkscape:document-units="mm"
     inkscape:cy="560"
     inkscape:cx="400"
     inkscape:zoom="0.35"
     inkscape:pageshadow="2"
     inkscape:pageopacity="0.0"
     borderopacity="1.0"
     bordercolor="#666666"
     pagecolor="#ffffff"
     id="base" />
  <metadata
     id="metadata188">
    <rdf:RDF>
      <cc:Work
         rdf:about="">
        <dc:format>image/svg+xml</dc:format>
        <dc:type
           rdf:resource="http://purl.org/dc/dcmitype/StillImage" />
        <dc:title></dc:title>
      </cc:Work>
    </rdf:RDF>
  </metadata>
  <g
     id="layer1"
     inkscape:groupmode="layer"
     inkscape:label="Livello 1">
    <path
       d="m 26.203515,97.9953 c 1.383091,27.73064 2.176042,55.49137 2.697536,83.25107 -0.02927,8.53711 0.260144,12.23181 -0.697902,20.17843 -0.282374,2.34218 -0.77284,5.70797 -2.121937,7.91059 -0.283097,0.4622 -0.800494,0.73096 -1.200741,1.09644 0,0 6.579228,0.48851 6.579228,0.48851 v 0 c 0.34943,-0.45367 0.810855,-0.83991 1.048292,-1.361 1.086901,-2.38539 1.331201,-5.66276 1.473459,-8.10445 0.448292,-7.69426 0.08335,-12.11119 -0.17423,-20.2221 -1.015058,-27.7281 -1.942172,-55.49269 -1.046451,-83.23749 0,0 -6.557254,0 -6.557254,0 z"
       id="path193"
       style="fill:#ff6600;stroke-width:0.264583" />
    <path
       d="m 11.756789,157.97326 c 2.533421,-12.27528 9.282316,-23.28107 17.277813,-32.75964 2.79482,-3.31323 5.93267,-6.32119 8.899006,-9.48179 4.833491,-4.47865 10.833301,-10.56423 16.617278,-14.10404 1.873311,-1.14648 4.079769,-1.633029 6.074841,-2.551384 0.959303,-0.441579 -2.439839,0.202464 -2.963841,1.119344 -0.752753,1.31715 0.220427,3.10823 -0.272248,4.54307 -0.92968,2.70755 -2.608482,5.0967 -3.912725,7.64505 -10.511088,14.82314 -24.96921,26.01765 -38.470446,37.93813 -0.414438,0.50184 -0.929315,0.93543 -1.243316,1.50552 -0.138032,0.25061 -0.193868,0.60482 -0.05759,0.85639 0.183013,0.33785 0.601756,0.47802 0.906916,0.7115 0.595222,0.45542 1.288344,0.80206 1.794128,1.35512 1.074053,1.17445 1.986978,2.48885 2.90814,3.78669 1.381663,1.94664 2.664713,3.96143 3.99707,5.94215 4.040322,6.34709 7.973559,12.76065 11.973345,19.13317 0,0 5.967354,-0.34024 5.967354,-0.34024 v 0 c -4.119179,-6.3079 -8.177435,-12.65427 -12.026082,-19.13254 -0.578472,-0.93373 -5.088518,-8.33929 -6.321749,-9.94996 -0.467084,-0.61004 -0.999018,-1.20264 -1.652209,-1.60719 -0.114776,-0.0711 -1.279752,0.39576 -0.927611,-0.32581 0.252988,-0.51839 0.662341,-0.94459 0.993512,-1.41688 12.710532,-12.6391 27.219729,-23.57495 37.865036,-38.17551 1.464577,-2.62745 3.367071,-5.0549 4.393729,-7.88235 0.614119,-1.6913 1.884722,-4.33298 0.422426,-5.381468 -2.544927,-1.824747 -6.228615,-1.368457 -9.339818,-1.012418 -2.088206,0.238972 -3.930275,1.571739 -5.683099,2.731616 -5.540918,3.66652 -11.530116,9.78876 -16.217572,14.22129 -2.981981,3.17702 -6.114405,6.21926 -8.945946,9.53106 -8.259518,9.66043 -15.3192981,20.68892 -18.7581135,33.02695 0,0 6.7017755,0.0742 6.7017755,0.0742 z"
       id="path195"
       style="fill:#ff6600;stroke-width:0.264583" />
    <path
       d="m 55.376685,178.36001 c -2.19469,-15.92394 -3.639254,-31.9648 -4.056218,-48.03564 0.05595,-0.78093 0.94366,-2.23739 0.167851,-2.34281 -8.877413,-1.20626 -5.642144,2.39918 -4.572463,6.89025 0.566759,2.37955 1.014611,4.78585 1.521918,7.17878 0,0 5.895316,-0.11425 5.895316,-0.11425 v 0 c -0.433271,-2.39998 -0.869593,-4.7994 -1.299816,-7.19992 -0.995693,-5.55566 0.337982,-8.05351 -8.05738,-6.73739 -0.782508,0.12267 0.195982,1.57197 0.293973,2.35795 1.310622,16.00234 2.6591,32.00624 3.494027,48.04189 0,0 6.612792,-0.0389 6.612792,-0.0389 z"
       id="path197"
       style="fill:#ff6600;stroke-width:0.264583" />
    <path
       d="m 40.005418,156.31691 c 8.964231,-4.42928 17.762325,-9.18171 26.567426,-13.91601 0,0 -5.570297,-0.60354 -5.570297,-0.60354 v 0 c -9.071255,4.83487 -18.147096,9.69772 -27.597393,13.76492 0,0 6.600264,0.75463 6.600264,0.75463 z"
       id="path199"
       style="fill:#ff6600;stroke-width:0.264583" />
    <path
       d="m 56.72633,120.18056 c 4.172633,5.03899 8.062709,10.30077 11.9347,15.57108 0,0 6.054408,-0.38477 6.054408,-0.38477 v 0 c -3.807344,-5.15971 -7.637264,-10.30176 -11.277894,-15.58138 0,0 -6.711214,0.39507 -6.711214,0.39507 z"
       id="path201"
       style="fill:#ff6600;stroke-width:0.264583" />
    <path
       d="m 73.794926,98.964654 c 1.009459,16.618096 0.437896,33.277996 -1.012746,49.854076 -0.601009,6.86759 -1.494043,13.70649 -2.241068,20.55974 0,0 4.240837,0.0473 4.240837,0.0473 v 0 c 0.790255,-6.85785 1.667801,-13.7062 2.370762,-20.57354 1.697847,-16.58658 2.836751,-33.22056 3.266646,-49.887626 0,0 -6.624431,0 -6.624431,0 z"
       id="path203"
       style="fill:#ff6600;stroke-width:0.264583" />
    <path
       d="m 80.82137,105.77585 c 3.623805,8.82408 6.352207,17.96543 9.051502,27.10306 0,0 5.660202,-0.15985 5.660202,-0.15985 v 0 c -2.593401,-9.10712 -5.12318,-18.22955 -7.99047,-27.25506 0,0 -6.721234,0.31185 -6.721234,0.31185 z"
       id="path205"
       style="fill:#ff6600;stroke-width:0.264583" />
    <path
       d="m 78.378226,103.05811 c 6.205252,5.34528 13.320289,9.4606 20.405939,13.50113 0,0 5.950705,-0.62871 5.950705,-0.62871 v 0 c -6.905062,-3.93579 -13.879489,-7.96519 -19.711639,-13.4347 0,0 -6.645005,0.56228 -6.645005,0.56228 z"
       id="path207"
       style="fill:#ff6600;stroke-width:0.264583" />
    <path
       d="m 89.613945,79.917548 c 1.746986,8.186661 4.097899,16.2306 6.189657,24.331582 2.556225,9.89976 2.601955,10.433 4.829338,20.25645 0,0 5.54195,-0.1251 5.54195,-0.1251 v 0 c -2.2049,-9.48426 -2.46386,-10.68528 -4.77617,-20.27152 -1.930231,-8.002293 -4.057899,-16.000499 -5.04838,-24.191412 0,0 -6.736395,0 -6.736395,0 z"
       id="path209"
       style="fill:#ff6600;stroke-width:0.264583" />
    <path
       d="m 121.52074,138.65535 c 0.97338,-14.48168 0.58834,-29.02517 0.95964,-43.52756 0.36811,-14.377606 0.94205,-23.597478 1.68763,-37.821284 0.17744,-2.773037 1.13181,-20.941377 2.05918,-25.406231 0.3087,-1.486236 2.99191,-3.058409 1.91735,-4.130556 -1.01273,-1.010457 -3.43229,1.367314 -3.26305,2.787878 0.3843,3.225895 3.27156,5.62607 4.61766,8.582776 2.03645,4.473056 3.67683,9.116055 5.51524,13.674079 1.77089,5.002456 3.54177,10.004912 5.31266,15.007368 0,0 4.8317,-0.162174 4.8317,-0.162174 v 0 c -1.72005,-5.008753 -3.44011,-10.017506 -5.16016,-15.026259 -1.63479,-4.58266 -3.13446,-9.215786 -4.90436,-13.747975 -2.61814,-6.704279 -3.37828,-13.059856 -13.19276,-11.335832 -1.46691,0.257678 -1.01413,2.828327 -1.18645,4.307692 -0.98155,8.426903 -0.10521,17.011145 -1.10176,25.427765 -0.78634,18.762581 -0.74911,18.547104 -1.67717,37.828524 -0.29259,6.078949 -0.58623,12.157889 -0.9084,18.235349 -0.40727,7.6827 -0.66569,13.75058 -1.51473,21.19182 -0.15209,1.3329 -0.42267,2.6496 -0.63401,3.9744 0,0 6.64179,0.14022 6.64179,0.14022 z"
       id="path211"
       style="fill:#ff6600;stroke-width:0.264583" />
    <path
       d="m 116.25962,86.004965 c 1.15166,-1.141452 2.22839,-2.363822 3.45496,-3.424356 6.88482,-5.95285 17.83894,-14.441519 24.64472,-19.780483 4.73595,-3.715239 9.48418,-7.41481 14.22627,-11.122215 0,0 -4.5493,-0.41384 -4.5493,-0.41384 v 0 c -14.40319,11.263627 -14.10338,11.146541 -28.79872,22.164479 -3.87654,2.906469 -7.85685,5.675209 -11.68393,8.646495 -1.36516,1.059887 -2.58743,2.291993 -3.88114,3.437988 0,0 6.58714,0.491932 6.58714,0.491932 z"
       id="path213"
       style="fill:#ff6600;stroke-width:0.264583" />
  </g>
</svg>
