<?xml version="1.0" encoding="UTF-8" standalone="no"?>
<!DOCTYPE svg PUBLIC "-//W3C//DTD SVG 1.1//EN" "http://www.w3.org/Graphics/SVG/1.1/DTD/svg11.dtd">
<svg version="1.1" xmlns="http://www.w3.org/2000/svg" xmlns:xlink="http://www.w3.org/1999/xlink" preserveAspectRatio="xMidYMid meet" viewBox="0 0 1000 1000" width="1000" height="1000"><defs><path d="M812.46 144.86C886.89 224.18 853.66 384.78 853.66 514.89C853.66 618.73 775.53 696.88 725.58 771.47C660.7 868.35 625.53 965.16 515.25 965.16C404.97 965.16 369.21 868.35 304.33 771.47C254.38 696.88 182.71 618.73 182.71 514.89C182.71 384.78 152.5 221.05 226.93 141.73C289.07 75.51 424.92 150.34 513.74 150.34C602.55 150.34 750.33 78.64 812.46 144.86Z" id="b4jYIk4MoO"></path><linearGradient id="gradientb19Hnrxruy" gradientUnits="userSpaceOnUse" x1="519.35" y1="240.64" x2="519.35" y2="963.61"><stop style="stop-color: #cbcbcb;stop-opacity: 1" offset="0%"></stop><stop style="stop-color: #3f3f3f;stop-opacity: 1" offset="100%"></stop></linearGradient><clipPath id="clipc1aERDHGTQ"><use xlink:href="#b4jYIk4MoO" opacity="1"></use></clipPath><path d="M600.38 411.63C600.38 439.77 642.59 351.63 700.75 351.63C717.33 351.63 685.49 437.62 698.75 442.67C732.02 455.36 800.13 392.75 800.13 372.63C800.13 344.48 752.91 321.63 694.75 321.63C636.59 321.63 600.38 383.48 600.38 411.63Z" id="f2ub92a82G"></path><path d="M426.5 411C426.5 439.15 384.28 351 326.13 351C309.55 351 341.39 436.99 328.13 442.05C294.86 454.74 226.75 392.13 226.75 372C226.75 343.85 273.97 321 332.13 321C390.28 321 426.5 382.85 426.5 411Z" id="bTD5vJ36F"></path><path d="M629.38 778.68C629.38 812.82 595.95 875 517.1 875C438.24 875 406.25 815.39 406.25 781.25C406.25 747.11 438.24 824.8 517.1 824.8C595.95 824.8 629.38 744.54 629.38 778.68Z" id="b1FZEvzt2"></path><path d="M597.56 429.59C597.56 470.25 605.18 453.13 667.31 453.13C729.43 453.13 781.25 415.77 781.25 375.1C781.25 334.44 750.68 344.98 688.56 344.98C626.43 344.98 597.56 388.92 597.56 429.59Z" id="b111xNKwz"></path><path d="M546.88 625C558.54 616.83 584.32 626.12 596 621.32C610.27 615.46 609.38 597.14 609.38 607.07C609.38 635.26 566.85 687.5 514.47 687.5C462.09 687.5 427.17 637.57 427.17 609.38C427.17 596.53 429.48 619.11 444.84 627.27C452.07 631.11 468.95 615.68 477.42 621.39C490.44 630.18 498.34 648.37 515.63 648.37C534.48 648.37 532.29 635.21 546.88 625Z" id="c36zir0Zqz"></path><path d="M433.69 429.59C433.69 470.25 426.07 453.13 363.94 453.13C301.82 453.13 250 415.77 250 375.1C250 334.44 280.57 344.98 342.69 344.98C404.82 344.98 433.69 388.92 433.69 429.59Z" id="d3lol9qBQl"></path><path d="M591.87 570.32L592.56 570.59L593.29 570.95L594.05 571.42L594.83 571.98L595.63 572.63L596.45 573.37L597.27 574.2L598.11 575.12L598.94 576.11L599.78 577.19L600.6 578.34L601.42 579.56L602.22 580.85L603 582.21L603.75 583.64L604.48 585.12L605.17 586.67L605.83 588.27L606.44 589.93L607.01 591.63L607.53 593.39L607.99 595.19L608.4 597.03L608.74 598.91L609.01 600.82L609.21 602.78L609.33 604.76L609.38 606.77L609.33 608.75L609.21 610.65L609.01 612.48L608.74 614.23L608.4 615.9L607.99 617.49L607.53 619.01L607.01 620.46L606.44 621.83L605.83 623.13L605.17 624.35L604.48 625.51L603.75 626.59L603 627.61L602.22 628.56L601.42 629.44L600.6 630.26L599.78 631L598.94 631.69L598.11 632.31L597.27 632.87L596.45 633.36L595.63 633.79L594.83 634.17L594.05 634.48L593.44 634.68L593.43 634.73L593.25 635.23L592.99 635.61L592.67 635.89L592.28 636.08L591.83 636.17L591.31 636.18L590.73 636.11L590.1 635.97L589.41 635.76L588.67 635.48L587.88 635.15L587.04 634.78L586.15 634.35L585.22 633.89L584.25 633.4L583.24 632.89L582.18 632.35L581.1 631.79L579.98 631.23L578.82 630.67L577.64 630.11L576.43 629.56L575.2 629.02L573.94 628.51L572.67 628.02L571.37 627.56L570.06 627.15L568.73 626.78L567.4 626.46L566.05 626.19L564.69 625.99L563.33 625.85L561.97 625.79L560.61 625.81L559.24 625.92L557.88 626.12L556.53 626.41L555.18 626.81L554.22 627.17L553.28 627.61L552.35 628.12L551.45 628.69L550.55 629.33L549.68 630.02L548.81 630.76L547.95 631.55L547.11 632.38L546.27 633.25L545.43 634.16L544.61 635.09L543.78 636.06L542.96 637.04L542.13 638.04L541.31 639.06L540.48 640.08L539.65 641.11L538.81 642.14L537.97 643.17L537.11 644.18L536.25 645.19L535.37 646.18L534.48 647.14L533.57 648.09L532.65 649L531.71 649.88L530.76 650.72L529.78 651.51L528.77 652.26L527.75 652.96L526.7 653.61L525.62 654.19L524.51 654.71L523.37 655.16L522.21 655.54L521.01 655.85L519.77 656.07L518.5 656.2L517.19 656.25L515.86 656.21L514.54 656.09L513.25 655.9L511.97 655.63L510.71 655.3L509.47 654.9L508.25 654.45L507.04 653.94L505.85 653.37L504.67 652.76L503.51 652.1L502.37 651.4L501.23 650.66L500.11 649.89L499 649.08L497.91 648.25L496.82 647.4L495.75 646.53L494.69 645.64L493.63 644.74L492.59 643.83L491.55 642.91L490.53 642L489.51 641.09L488.49 640.18L487.49 639.29L486.48 638.41L485.49 637.54L484.5 636.7L483.51 635.88L482.53 635.09L481.55 634.33L480.57 633.61L479.59 632.93L478.62 632.29L477.64 631.7L476.67 631.16L475.69 630.67L474.72 630.24L473.74 629.88L472.42 629.47L471.12 629.16L469.82 628.94L468.53 628.79L467.26 628.72L466.01 628.73L464.77 628.8L463.54 628.93L462.34 629.12L461.15 629.35L459.99 629.63L458.85 629.95L457.73 630.31L456.63 630.69L455.57 631.09L454.52 631.52L453.51 631.96L452.53 632.4L451.57 632.85L450.65 633.29L449.77 633.73L448.91 634.15L448.09 634.56L447.31 634.93L446.57 635.28L445.86 635.6L445.2 635.87L444.58 636.1L444 636.28L443.46 636.41L442.97 636.47L442.53 636.46L442.13 636.39L441.78 636.23L441.49 636L441.24 635.67L441.05 635.26L440.91 634.74L440.9 634.67L440.33 634.48L439.55 634.17L438.75 633.79L437.93 633.36L437.1 632.87L436.27 632.31L435.44 631.69L434.6 631L433.78 630.26L432.96 629.44L432.16 628.56L431.38 627.61L430.63 626.59L429.9 625.51L429.21 624.35L428.55 623.13L427.94 621.83L427.37 620.46L426.85 619.01L426.39 617.49L425.98 615.9L425.64 614.23L425.37 612.48L425.17 610.65L425.05 608.75L425 606.77L425.05 604.76L425.17 602.78L425.37 600.82L425.64 598.91L425.98 597.03L426.39 595.19L426.85 593.39L427.37 591.63L427.94 589.93L428.55 588.27L429.21 586.67L429.9 585.12L430.63 583.64L431.38 582.21L432.16 580.85L432.96 579.56L433.78 578.34L434.6 577.19L435.44 576.11L436.27 575.12L437.1 574.2L437.93 573.37L438.75 572.63L439.55 571.98L440.33 571.42L441.09 570.95L441.82 570.59L442.51 570.32L443.17 570.16L443.79 570.11L444.33 570.16L444.75 570.31L445.06 570.56L445.27 570.91L445.38 571.35L445.41 571.88L445.36 572.5L445.23 573.21L445.03 574.01L444.77 574.88L444.46 575.83L444.1 576.86L443.7 577.97L443.27 579.15L442.81 580.39L442.33 581.71L441.84 583.09L441.34 584.53L440.84 586.03L440.35 587.59L439.88 589.21L439.42 590.88L438.99 592.6L438.6 594.36L438.25 596.18L437.95 598.04L437.7 599.93L437.52 601.87L437.4 603.84L437.36 605.85L437.4 607.84L437.52 609.75L437.7 611.59L437.95 613.35L438.25 615.05L438.6 616.67L438.99 618.22L439.42 619.7L439.88 621.11L440.35 622.45L440.84 623.72L441.34 624.91L441.84 626.04L442.26 626.96L442.4 626.66L442.81 625.85L443.28 625.04L443.78 624.25L444.34 623.46L444.94 622.68L445.58 621.91L446.26 621.14L446.99 620.39L447.76 619.65L448.56 618.92L449.41 618.19L450.3 617.48L451.23 616.78L452.2 616.08L453.2 615.4L454.25 614.73L455.32 614.08L456.44 613.43L457.59 612.8L458.77 612.18L459.99 611.57L461.24 610.98L462.53 610.39L463.85 609.83L465.2 609.27L466.58 608.73L467.99 608.21L469.43 607.7L470.89 607.2L472.39 606.72L473.92 606.26L475.47 605.81L476.37 605.63L477.27 605.6L478.17 605.72L479.08 605.96L479.99 606.34L480.9 606.83L481.81 607.44L482.73 608.15L483.65 608.95L484.57 609.85L485.5 610.82L486.43 611.87L487.37 612.99L488.31 614.16L489.25 615.39L490.2 616.66L491.16 617.97L492.12 619.3L493.09 620.66L494.06 622.03L495.04 623.41L496.02 624.78L497.02 626.15L498.02 627.5L499.02 628.83L500.04 630.12L501.06 631.38L502.09 632.59L503.13 633.75L504.18 634.84L505.24 635.87L506.3 636.82L507.38 637.69L508.46 638.47L509.56 639.14L510.66 639.71L511.78 640.17L512.91 640.51L514.04 640.71L515.19 640.78L516.43 640.71L517.66 640.51L518.9 640.18L520.14 639.72L521.38 639.16L522.63 638.48L523.87 637.71L525.11 636.85L526.35 635.91L527.59 634.89L528.82 633.81L530.06 632.66L531.28 631.46L532.51 630.22L533.73 628.94L534.95 627.62L536.16 626.29L537.37 624.94L538.56 623.58L539.76 622.22L540.94 620.87L542.12 619.53L543.29 618.22L544.45 616.93L545.6 615.69L546.73 614.48L547.86 613.33L548.98 612.24L550.09 611.21L551.18 610.26L552.26 609.4L553.33 608.62L554.39 607.94L555.43 607.36L556.45 606.9L557.46 606.55L558.46 606.34L559.44 606.25L560.4 606.31L561.34 606.52L562.79 606.98L564.22 607.45L565.61 607.93L566.98 608.43L568.33 608.94L569.64 609.46L570.93 610L572.19 610.54L573.41 611.11L574.61 611.68L575.77 612.27L576.91 612.86L578.01 613.47L579.08 614.09L580.12 614.72L581.12 615.37L582.09 616.02L583.02 616.68L583.92 617.36L584.78 618.04L585.6 618.73L586.39 619.43L587.14 620.15L587.85 620.87L588.53 621.59L589.16 622.33L589.75 623.08L590.31 623.83L590.82 624.59L591.29 625.36L591.72 626.13L592.1 626.92L592.12 626.95L592.54 626.04L593.04 624.91L593.54 623.72L594.03 622.45L594.5 621.11L594.96 619.7L595.38 618.22L595.78 616.67L596.13 615.05L596.43 613.35L596.68 611.59L596.86 609.75L596.98 607.84L597.02 605.85L596.98 603.84L596.86 601.87L596.68 599.93L596.43 598.04L596.13 596.18L595.78 594.36L595.38 592.6L594.96 590.88L594.5 589.21L594.03 587.59L593.54 586.03L593.04 584.53L592.54 583.09L592.05 581.71L591.57 580.39L591.11 579.15L590.68 577.97L590.28 576.86L589.92 575.83L589.61 574.88L589.35 574.01L589.15 573.21L589.02 572.5L588.97 571.88L588.99 571.35L589.11 570.91L589.32 570.56L589.63 570.31L590.05 570.16L590.59 570.11L591.21 570.16L591.87 570.32Z" id="b2aNEWUEB"></path><path d="M705.98 672.59C705.98 683.46 596.38 815.91 520.39 815.91C444.39 815.91 325.27 683.46 325.27 672.59C325.27 661.73 441.78 750 517.78 750C593.77 750 705.98 661.73 705.98 672.59Z" id="borMCr4J5"></path><path d="M468.75 390.63C468.75 401.05 401.94 292.93 343.75 292.93C285.56 292.93 234.38 325.78 234.38 315.35C234.38 304.93 286.37 281.25 344.57 281.25C402.76 281.25 468.75 380.2 468.75 390.63Z" id="i5gfLlsd90"></path><path d="M570.31 390.63C570.31 401.05 637.12 292.93 695.31 292.93C753.5 292.93 804.69 325.78 804.69 315.35C804.69 304.93 752.69 281.25 694.5 281.25C636.31 281.25 570.31 380.2 570.31 390.63Z" id="a6xvka05B"></path><path d="M475.29 425.37C475.29 374.66 459.26 375 453.92 375C448.57 375 472.06 462.57 472.06 513.28C472.06 563.99 461.88 555.1 467.22 555.1C472.56 555.1 475.29 476.08 475.29 425.37Z" id="l1g47We3z3"></path><path d="M562.5 425.37C562.5 374.66 578.53 375 583.87 375C589.21 375 565.73 462.57 565.73 513.28C565.73 563.99 575.91 555.1 570.56 555.1C565.22 555.1 562.5 476.08 562.5 425.37Z" id="b2Swi0xVjH"></path></defs><g><g><g><g><filter id="shadow10482680" x="136.64" y="74.38" width="764.41" height="944.78" filterUnits="userSpaceOnUse" primitiveUnits="userSpaceOnUse"><feFlood></feFlood><feComposite in2="SourceAlpha" operator="in"></feComposite><feGaussianBlur stdDeviation="3.16"></feGaussianBlur><feOffset dx="0" dy="14" result="afterOffset"></feOffset><feFlood flood-color="#000000" flood-opacity="0.97"></feFlood><feComposite in2="afterOffset" operator="in"></feComposite><feMorphology operator="dilate" radius="1"></feMorphology><feComposite in2="SourceAlpha" operator="out"></feComposite></filter><path d="M812.46 144.86C886.89 224.18 853.66 384.78 853.66 514.89C853.66 618.73 775.53 696.88 725.58 771.47C660.7 868.35 625.53 965.16 515.25 965.16C404.97 965.16 369.21 868.35 304.33 771.47C254.38 696.88 182.71 618.73 182.71 514.89C182.71 384.78 152.5 221.05 226.93 141.73C289.07 75.51 424.92 150.34 513.74 150.34C602.55 150.34 750.33 78.64 812.46 144.86Z" id="c1wN2DzfXI" fill="white" fill-opacity="1" filter="url(#shadow10482680)"></path></g><use xlink:href="#b4jYIk4MoO" opacity="1" fill="url(#gradientb19Hnrxruy)"></use><g clip-path="url(#clipc1aERDHGTQ)"><use xlink:href="#b4jYIk4MoO" opacity="1" fill-opacity="0" stroke="#ffffff" stroke-width="26" stroke-opacity="1"></use></g></g><g><use xlink:href="#f2ub92a82G" opacity="1" fill="#8c8989" fill-opacity="1"></use></g><g><use xlink:href="#bTD5vJ36F" opacity="1" fill="#8c8989" fill-opacity="1"></use></g><g><use xlink:href="#b1FZEvzt2" opacity="1" fill="#3f3d3d" fill-opacity="1"></use></g><g><use xlink:href="#b111xNKwz" opacity="1" fill="#2f2f2f" fill-opacity="1"></use></g><g><use xlink:href="#c36zir0Zqz" opacity="1" fill="#595959" fill-opacity="1"></use></g><g><use xlink:href="#d3lol9qBQl" opacity="1" fill="#2f2f2f" fill-opacity="1"></use></g><g><use xlink:href="#b2aNEWUEB" opacity="1" fill="#2f2f2f" fill-opacity="1"></use></g><g><use xlink:href="#borMCr4J5" opacity="1" fill="#181818" fill-opacity="1"></use></g><g><use xlink:href="#i5gfLlsd90" opacity="1" fill="#999999" fill-opacity="1"></use></g><g><use xlink:href="#a6xvka05B" opacity="1" fill="#999999" fill-opacity="1"></use></g><g><use xlink:href="#l1g47We3z3" opacity="1" fill="#999999" fill-opacity="1"></use></g><g><use xlink:href="#b2Swi0xVjH" opacity="1" fill="#999999" fill-opacity="1"></use></g></g></g></svg>